<svg width="161" height="143" viewBox="0 0 161 143" fill="none" xmlns="http://www.w3.org/2000/svg">
<path d="M149.316 106.22C148.011 109.48 147.561 112.792 147.683 116.102L124.438 82.8578L85 26.4557V12.6056L154.816 97.93C152.326 100.508 150.502 103.259 149.316 106.22ZM76 12.8026V26.4557L36.5621 82.8578L14.5257 114.373C14.3565 111.268 13.5191 108.321 11.8538 105.548C10.5067 103.305 8.69557 101.306 6.4807 99.4767L76 12.8026ZM66.3742 98.7383L15.5277 128.646L41.8537 90.9958C50.7725 94.672 58.7492 97.271 66.3742 98.7383ZM79.3011 91.1347C71.1438 90.95 62.7186 89.1506 52.7048 85.5487C64.04 81.6612 73.2604 79.8967 82.0413 79.9596C90.6042 80.021 98.9992 81.8218 108.786 85.4222C98.6719 89.1415 90.1337 91.0066 81.6977 91.1425L80.4846 90.4386L79.3011 91.1347ZM119.156 91.0096L144.887 127.808L94.8324 98.764C102.47 97.2943 110.37 94.6767 119.156 91.0096ZM80.5 35.7258L108.507 75.7795C99.375 72.6966 90.9096 71.0229 82.1058 70.9598C72.6973 70.8924 63.1302 72.6658 52.1744 76.2357L80.5 35.7258Z" fill="#A3C936" stroke="#47396C" stroke-width="9"/>
</svg>
