<svg width="78" height="71" viewBox="0 0 78 71" fill="none" xmlns="http://www.w3.org/2000/svg">
<rect width="78" height="71" rx="7" fill="#181717"/>
<path d="M68.8178 53.5314C68.8309 53.6259 68.8451 53.7206 68.8604 53.8153L57.9412 39.5461L41 17.4072V10.9236L71.8383 45.3615C70.731 46.38 69.9261 47.4699 69.4092 48.6496C68.7081 50.2497 68.5911 51.8914 68.8178 53.5314ZM38 10.9826V17.4072L21.0588 39.5461L10.78 52.9784C10.7834 52.9377 10.7866 52.8971 10.7894 52.8566C10.9019 51.2584 10.573 49.7751 9.68036 48.417C9.08787 47.5155 8.27815 46.7165 7.27511 45.9855L38 10.9826ZM34.3166 45.5404L10.4218 58.383L22.7574 42.2628C27.0234 43.8895 30.7583 44.9879 34.3166 45.5404ZM39.1288 42.954C35.3133 42.895 31.3942 42.0985 26.6895 40.4959C31.9137 38.8027 36.1333 38.0242 40.1645 38.0506C44.1149 38.0765 47.9662 38.8758 52.4889 40.4522C47.7607 42.0955 43.8054 42.9184 39.8707 42.9562L39.4952 42.7571L39.1288 42.954ZM56.2456 42.2668L68.3132 58.0367L44.7652 45.5513C48.3382 44.9992 52.0401 43.8908 56.2456 42.2668ZM39.5 20.3835L52.4132 37.2586C48.1138 35.8412 44.2274 35.0772 40.1842 35.0507C35.9287 35.0228 31.5774 35.8125 26.4644 37.4186L39.5 20.3835Z" fill="#82AC0B" stroke="#47396C" stroke-width="3"/>
</svg>
