<svg width="78" height="71" viewBox="0 0 78 71" fill="none" xmlns="http://www.w3.org/2000/svg">
<rect width="78" height="71" fill="#E5E5E5"/>
<rect width="78" height="71" rx="21" fill="#181717"/>
<mask id="path-3-inside-1_0_1" fill="white">
<path d="M74 45.527C67.4905 50.3129 70.6526 55.7141 74 63L73.6778 62.5789L39.5 44.4574L5 63C9.98812 54.2302 11.4602 50.0054 5 46.3035L39.5 7L74 45.527Z"/>
</mask>
<path d="M74 45.527C67.4905 50.3129 70.6526 55.7141 74 63L73.6778 62.5789L39.5 44.4574L5 63C9.98812 54.2302 11.4602 50.0054 5 46.3035L39.5 7L74 45.527Z" fill="#56D179"/>
<path d="M22.25 40.4576L21.0588 39.5461L22.25 40.4576ZM56.75 40.4576L57.9412 39.5461L57.9412 39.5461L56.75 40.4576ZM39.5 44.4574L39.4958 45.9574L39.4958 45.9574L39.5 44.4574ZM6.19124 63.9116L23.4412 41.3692L21.0588 39.5461L3.80876 62.0884L6.19124 63.9116ZM23.4412 41.3692L40.6912 18.8268L38.3088 17.0037L21.0588 39.5461L23.4412 41.3692ZM38.3088 18.8268L55.5588 41.3692L57.9412 39.5461L40.6912 17.0037L38.3088 18.8268ZM22.7723 41.8638C29.8918 39.2195 35.1726 38.0179 40.1645 38.0506C45.1483 38.0833 49.9745 39.3469 56.1898 41.8491L57.3102 39.0662C50.9279 36.4967 45.702 35.0868 40.1842 35.0507C34.6745 35.0146 29.0041 36.3489 21.7277 39.0515L22.7723 41.8638ZM21.701 41.8535C28.5602 44.5514 34.0302 45.9422 39.4958 45.9574L39.5042 42.9574C34.5671 42.9437 29.4935 41.6947 22.799 39.0617L21.701 41.8535ZM39.4958 45.9574C45.0824 45.973 50.5267 44.551 57.3051 41.8512L56.195 39.0641C49.5809 41.6984 44.5449 42.9715 39.5042 42.9574L39.4958 45.9574ZM55.5588 41.3692L72.4865 63.4904L74.869 61.6673L57.9412 39.5461L55.5588 41.3692ZM38 7V17.9153H41V7H38ZM74 63L71.6175 64.8231L76.7261 61.7476L74 63ZM74 45.527L75.7771 47.944L78.4389 45.9869L76.2349 43.5257L74 45.527ZM5 63L2.39231 61.5168L-2.76111 70.5772L6.42026 65.6425L5 63ZM39.5 7L41.7349 4.9987L39.4776 2.47792L37.2454 5.02093L39.5 7ZM5 46.3035L2.74538 44.3245L0.32475 47.0821L3.50845 48.9065L5 46.3035ZM39.5 44.4574L40.9053 41.8069L39.4904 41.0567L38.0797 41.8149L39.5 44.4574ZM73.6778 62.5789L76.0603 60.7558L75.662 60.2354L75.0831 59.9284L73.6778 62.5789ZM76.7261 61.7476C75.8524 59.8459 75.0805 58.2567 74.4438 56.7206C73.8144 55.2018 73.4212 53.9698 73.2754 52.9152C73.1359 51.9063 73.2332 51.1351 73.5309 50.4556C73.8355 49.7605 74.4595 48.9127 75.7771 47.944L72.2229 43.1099C70.2858 44.5342 68.864 46.1563 68.0353 48.0476C67.1997 49.9546 67.0761 51.8864 67.3319 53.7368C67.5814 55.5414 68.1995 57.325 68.901 59.0177C69.5953 60.693 70.4739 62.5111 71.2739 64.2524L76.7261 61.7476ZM76.2349 43.5257L41.7349 4.9987L37.2651 9.0013L71.7651 47.5283L76.2349 43.5257ZM37.2454 5.02093L2.74538 44.3245L7.25462 48.2826L41.7546 8.97907L37.2454 5.02093ZM3.50845 48.9065C4.89621 49.7017 5.58067 50.3725 5.91985 50.8885C6.2122 51.3333 6.35163 51.8144 6.30052 52.5407C6.24324 53.3548 5.94335 54.4584 5.26459 56.009C4.59248 57.5445 3.6308 59.3393 2.39231 61.5168L7.60769 64.4832C8.86326 62.2758 9.95614 60.2539 10.7611 58.415C11.5594 56.5913 12.159 54.763 12.2857 52.9619C12.4186 51.073 12.0266 49.2557 10.9339 47.5931C9.88801 46.0018 8.3339 44.7563 6.49155 43.7006L3.50845 48.9065ZM6.42026 65.6425L40.9203 47.0999L38.0797 41.8149L3.57974 60.3575L6.42026 65.6425ZM71.2952 64.402L71.6175 64.8231L76.3825 61.1769L76.0603 60.7558L71.2952 64.402ZM75.0831 59.9284L40.9053 41.8069L38.0947 47.1079L72.2724 65.2294L75.0831 59.9284Z" fill="#47396C" mask="url(#path-3-inside-1_0_1)"/>
</svg>
