<svg width="78" height="71" viewBox="0 0 78 71" fill="none" xmlns="http://www.w3.org/2000/svg">
<rect width="78" height="71" fill="#E5E5E5"/>
<rect x="-644" y="-153" width="1923" height="1393" rx="74" fill="#1C1313"/>
<rect width="78" height="71" rx="21" fill="#181717"/>
<mask id="path-3-inside-1_0_1" fill="white">
<path d="M74 45.527C67.4905 50.3129 70.6526 55.7141 74 63L73.6778 62.5789C73.6778 62.5789 42 46.3035 39.5 44.4574L5 63C9.98812 54.2302 11.4602 50.0054 5 46.3035L39.5 7L74 45.527Z"/>
</mask>
<path d="M74 45.527C67.4905 50.3129 70.6526 55.7141 74 63L73.6778 62.5789C73.6778 62.5789 42 46.3035 39.5 44.4574L5 63C9.98812 54.2302 11.4602 50.0054 5 46.3035L39.5 7L74 45.527Z" fill="#56D179"/>
<path d="M22.25 40.4576L21.0588 39.5461L22.25 40.4576ZM56.75 40.4576L57.9412 39.5461L57.9412 39.5461L56.75 40.4576ZM39.5 44.4574L39.4958 45.9574L39.4958 45.9574L39.5 44.4574ZM6.19124 63.9116L23.4412 41.3692L21.0588 39.5461L3.80876 62.0884L6.19124 63.9116ZM23.4412 41.3692L40.6912 18.8268L38.3088 17.0037L21.0588 39.5461L23.4412 41.3692ZM38.3088 18.8268L55.5588 41.3692L57.9412 39.5461L40.6912 17.0037L38.3088 18.8268ZM22.9716 41.7727C30.2678 37.7691 35.5499 36.0192 40.4106 36.0782C45.2537 36.137 49.9105 37.9945 55.9615 41.7337L57.5385 39.1816C51.316 35.3364 46.098 33.147 40.447 33.0785C34.8137 33.0101 28.9825 35.0524 21.5284 39.1426L22.9716 41.7727ZM21.701 41.8535C28.5602 44.5514 34.0302 45.9422 39.4958 45.9574L39.5042 42.9574C34.5671 42.9437 29.4935 41.6947 22.799 39.0617L21.701 41.8535ZM39.4958 45.9574C45.0824 45.973 50.5267 44.551 57.3051 41.8512L56.195 39.0641C49.5809 41.6984 44.5449 42.9715 39.5042 42.9574L39.4958 45.9574ZM55.5588 41.3692L72.4865 63.4904L74.869 61.6673L57.9412 39.5461L55.5588 41.3692ZM38 7V17.9153H41V7H38ZM74 63L71.6175 64.8231L76.7261 61.7476L74 63ZM74 45.527L75.7771 47.944L78.4389 45.9869L76.2349 43.5257L74 45.527ZM5 63L2.39231 61.5168L-2.76111 70.5772L6.42026 65.6425L5 63ZM39.5 7L41.7349 4.9987L39.4776 2.47792L37.2454 5.02093L39.5 7ZM5 46.3035L2.74538 44.3245L0.32475 47.0821L3.50845 48.9065L5 46.3035ZM39.5 44.4574L41.2821 42.0441L39.7535 40.9153L38.0797 41.8149L39.5 44.4574ZM73.6778 62.5789L76.0603 60.7558L75.6497 60.2192L75.0487 59.9105L73.6778 62.5789ZM76.7261 61.7476C75.8524 59.8459 75.0805 58.2567 74.4438 56.7206C73.8144 55.2018 73.4212 53.9698 73.2754 52.9152C73.1359 51.9063 73.2332 51.1351 73.5309 50.4556C73.8355 49.7605 74.4595 48.9127 75.7771 47.944L72.2229 43.1099C70.2858 44.5342 68.864 46.1563 68.0353 48.0476C67.1997 49.9546 67.0761 51.8864 67.3319 53.7368C67.5814 55.5414 68.1995 57.325 68.901 59.0177C69.5953 60.693 70.4739 62.5111 71.2739 64.2524L76.7261 61.7476ZM76.2349 43.5257L41.7349 4.9987L37.2651 9.0013L71.7651 47.5283L76.2349 43.5257ZM37.2454 5.02093L2.74538 44.3245L7.25462 48.2826L41.7546 8.97907L37.2454 5.02093ZM3.50845 48.9065C4.89621 49.7017 5.58067 50.3725 5.91985 50.8885C6.2122 51.3333 6.35163 51.8144 6.30052 52.5407C6.24324 53.3548 5.94335 54.4584 5.26459 56.009C4.59248 57.5445 3.6308 59.3393 2.39231 61.5168L7.60769 64.4832C8.86326 62.2758 9.95614 60.2539 10.7611 58.415C11.5594 56.5913 12.159 54.763 12.2857 52.9619C12.4186 51.073 12.0266 49.2557 10.9339 47.5931C9.88801 46.0018 8.3339 44.7563 6.49155 43.7006L3.50845 48.9065ZM6.42026 65.6425L40.9203 47.0999L38.0797 41.8149L3.57974 60.3575L6.42026 65.6425ZM71.2952 64.402L71.6175 64.8231L76.3825 61.1769L76.0603 60.7558L71.2952 64.402ZM73.6778 62.5789C75.0487 59.9105 75.0486 59.9104 75.0484 59.9103C75.0482 59.9102 75.0478 59.91 75.0474 59.9098C75.0464 59.9093 75.045 59.9085 75.0431 59.9076C75.0393 59.9056 75.0336 59.9027 75.0261 59.8988C75.0109 59.891 74.9883 59.8794 74.9584 59.864C74.8986 59.8333 74.8097 59.7876 74.6936 59.7279C74.4614 59.6084 74.1204 59.433 73.6854 59.2089C72.8153 58.7608 71.5693 58.1184 70.0662 57.3418C67.0596 55.7883 63.026 53.6984 58.9153 51.5513C54.8026 49.4033 50.621 47.2023 47.3154 45.4253C45.6613 44.5361 44.238 43.7593 43.1569 43.1513C42.6156 42.8468 42.1722 42.5915 41.8342 42.3896C41.6653 42.2888 41.5317 42.2065 41.4305 42.142C41.322 42.0729 41.2806 42.043 41.2821 42.0441L37.7179 46.8707C38.212 47.2356 39.1633 47.789 40.2158 48.381C41.3456 49.0164 42.8073 49.8139 44.4745 50.7101C47.8117 52.5041 52.0182 54.718 56.1375 56.8696C60.2587 59.0221 64.3007 61.1164 67.3119 62.6723C68.8177 63.4503 70.066 64.0938 70.9381 64.543C71.3741 64.7676 71.7161 64.9435 71.9492 65.0634C72.0657 65.1234 72.155 65.1693 72.2152 65.2002C72.2453 65.2157 72.2682 65.2275 72.2835 65.2353C72.2912 65.2393 72.297 65.2423 72.3009 65.2442C72.3028 65.2452 72.3043 65.246 72.3053 65.2465C72.3058 65.2468 72.3061 65.247 72.3064 65.2471C72.3066 65.2472 72.3068 65.2473 73.6778 62.5789Z" fill="#47396C" mask="url(#path-3-inside-1_0_1)"/>
</svg>
