<svg width="150" height="138" viewBox="0 0 150 138" fill="none" xmlns="http://www.w3.org/2000/svg">
<rect width="150" height="138" fill="#E5E5E5"/>
<rect x="-83" y="-34" width="1923" height="1393" rx="74" fill="#1C1313"/>
<rect width="150" height="138" rx="21" fill="#181717"/>
<mask id="path-3-inside-1_0_1" fill="white">
<path d="M142.308 88.489C129.789 97.7913 135.87 108.289 142.308 122.451L141.688 121.632C141.688 121.632 80.7692 89.9984 75.9615 86.4102L9.61536 122.451C19.2079 105.405 22.0388 97.1936 9.61536 89.9984L75.9615 13.6057L142.308 88.489Z"/>
</mask>
<path d="M142.308 88.489C129.789 97.7913 135.87 108.289 142.308 122.451L141.688 121.632C141.688 121.632 80.7692 89.9984 75.9615 86.4102L9.61536 122.451C19.2079 105.405 22.0388 97.1936 9.61536 89.9984L75.9615 13.6057L142.308 88.489Z" fill="#A356D1"/>
<path d="M42.7884 78.636L40.7953 77.1269L40.7953 77.1269L42.7884 78.636ZM109.135 78.636L111.128 77.1269L111.128 77.1269L109.135 78.636ZM75.9615 86.4102L75.9545 88.9102L75.9545 88.9102L75.9615 86.4102ZM11.6085 123.96L44.7816 80.145L40.7953 77.1269L7.62219 120.942L11.6085 123.96ZM44.7816 80.145L77.9547 36.3303L73.9683 33.3121L40.7953 77.1269L44.7816 80.145ZM73.9683 36.3303L107.141 80.145L111.128 77.1269L77.9547 33.3121L73.9683 36.3303ZM44.0009 80.8223C58.0529 73.0292 68.2773 69.5927 77.717 69.7084C87.1272 69.8239 96.1509 73.4744 107.81 80.7564L110.459 76.5155C98.5154 69.0561 88.549 64.8409 77.7784 64.7088C67.0373 64.5771 55.89 68.5112 41.5759 76.4497L44.0009 80.8223ZM41.8649 80.9591C55.0352 86.1946 65.5066 88.8808 75.9545 88.9102L75.9686 83.9102C66.4111 83.8833 56.6064 81.4386 43.7119 76.3128L41.8649 80.9591ZM75.9545 88.9102C86.6328 88.9403 97.0535 86.1943 110.068 80.9551L108.201 76.3168C95.4612 81.4454 85.7274 83.9377 75.9686 83.9102L75.9545 88.9102ZM107.141 80.145L139.695 123.141L143.681 120.123L111.128 77.1269L107.141 80.145ZM73.4615 13.6057V34.8212H78.4615V13.6057H73.4615ZM142.308 122.451L138.321 125.469L146.859 120.382L142.308 122.451ZM142.308 88.489L145.29 92.5023L149.664 89.252L146.05 85.1733L142.308 88.489ZM9.61536 122.451L5.25796 119.999L-3.2603 135.135L12.002 126.844L9.61536 122.451ZM75.9615 13.6057L79.7039 10.2899L75.924 6.02357L72.1865 10.3271L75.9615 13.6057ZM9.61536 89.9984L5.84031 86.7199L1.87041 91.2909L7.10949 94.3252L9.61536 89.9984ZM75.9615 86.4102L78.9521 82.4032L76.3872 80.4889L73.5748 82.0166L75.9615 86.4102ZM141.688 121.632L145.674 118.614L144.993 117.715L143.992 117.195L141.688 121.632ZM146.859 120.382C145.19 116.708 143.69 113.587 142.458 110.581C141.237 107.605 140.449 105.13 140.153 102.97C139.868 100.885 140.059 99.2153 140.709 97.7173C141.368 96.1961 142.678 94.4433 145.29 92.5023L139.325 84.4758C135.678 87.1859 133.054 90.2337 131.534 93.7397C130.004 97.2689 129.771 100.853 130.245 104.325C130.71 107.723 131.866 111.109 133.205 114.375C134.532 117.611 136.207 121.112 137.756 124.52L146.859 120.382ZM146.05 85.1733L79.7039 10.2899L72.2191 16.9214L138.565 91.8048L146.05 85.1733ZM72.1865 10.3271L5.84031 86.7199L13.3904 93.277L79.7366 16.8842L72.1865 10.3271ZM7.10949 94.3252C9.83343 95.9028 11.2652 97.2822 12.0138 98.4333C12.6875 99.4694 12.9938 100.599 12.8834 102.183C12.7632 103.911 12.143 106.161 10.8211 109.214C9.50981 112.241 7.64198 115.762 5.25796 119.999L13.9727 124.903C16.385 120.616 18.4682 116.719 19.9974 113.188C21.516 109.682 22.6257 106.234 22.8593 102.878C23.1028 99.3798 22.3869 96.0417 20.3971 92.9818C18.4822 90.0369 15.609 87.6917 12.1212 85.6717L7.10949 94.3252ZM12.002 126.844L78.3482 90.8038L73.5748 82.0166L7.22867 118.057L12.002 126.844ZM137.702 124.65L138.321 125.469L146.294 119.433L145.674 118.614L137.702 124.65ZM141.688 121.632C143.992 117.195 143.992 117.195 143.992 117.194C143.991 117.194 143.99 117.194 143.99 117.193C143.988 117.192 143.985 117.191 143.981 117.189C143.974 117.185 143.963 117.18 143.949 117.172C143.919 117.157 143.876 117.134 143.818 117.104C143.703 117.045 143.532 116.956 143.309 116.84C142.862 116.608 142.206 116.266 141.37 115.831C139.696 114.96 137.3 113.711 134.409 112.201C128.626 109.182 120.868 105.119 112.962 100.945C105.052 96.7696 97.0073 92.4899 90.6465 89.034C87.4639 87.3048 84.722 85.7923 82.6369 84.607C81.593 84.0137 80.7339 83.5138 80.0761 83.1167C79.7473 82.9182 79.4836 82.7543 79.2809 82.6237C79.1802 82.5588 79.1016 82.5067 79.0425 82.4664C79.0133 82.4466 78.9911 82.4311 78.9752 82.4198C78.959 82.4083 78.9518 82.4029 78.9521 82.4032L72.9709 90.4172C73.8745 91.0917 75.6576 92.1425 77.6952 93.3007C79.8618 94.5322 82.6679 96.0798 85.8725 97.8209C92.2862 101.305 100.372 105.607 108.293 109.788C116.218 113.972 123.99 118.042 129.78 121.065C132.675 122.577 135.075 123.828 136.752 124.701C137.591 125.137 138.248 125.479 138.696 125.712C138.92 125.829 139.092 125.918 139.208 125.978C139.266 126.008 139.31 126.031 139.339 126.046C139.354 126.054 139.365 126.06 139.372 126.064C139.376 126.066 139.379 126.067 139.381 126.068C139.382 126.069 139.382 126.069 139.383 126.069C139.383 126.069 139.384 126.07 141.688 121.632Z" fill="#47396C" mask="url(#path-3-inside-1_0_1)"/>
</svg>
