<svg width="123" height="122" viewBox="0 0 123 122" fill="none" xmlns="http://www.w3.org/2000/svg">
<path d="M34.645 24.6034L25.42 15.5042L18.1938 22.6717L27.3675 31.7709L34.645 24.6034ZM5.125 53.3751H20.5V63.5417H5.125V53.3751ZM56.375 2.7959H66.625V17.7917H56.375V2.7959ZM97.58 15.4788L104.796 22.6311L95.6223 31.7302L88.4114 24.5729L97.58 15.4788ZM88.355 92.3134L97.5288 101.463L104.755 94.2959L95.53 85.1967L88.355 92.3134ZM102.5 53.3751H117.875V63.5417H102.5V53.3751ZM61.5 27.9584C44.5363 27.9584 30.75 41.6326 30.75 58.4584C30.75 75.2842 44.5363 88.9584 61.5 88.9584C78.4638 88.9584 92.25 75.2842 92.25 58.4584C92.25 41.6326 78.4638 27.9584 61.5 27.9584ZM61.5 78.7917C50.1738 78.7917 41 69.6926 41 58.4584C41 47.2242 50.1738 38.1251 61.5 38.1251C72.8263 38.1251 82 47.2242 82 58.4584C82 69.6926 72.8263 78.7917 61.5 78.7917ZM56.375 99.1251H66.625V114.121H56.375V99.1251ZM18.1938 94.2451L25.42 101.413L34.5938 92.2626L27.3675 85.0951L18.1938 94.2451Z" fill="black"/>
</svg>
